# Blender 3.6.0
# www.blender.org
mtllib 4x4map.mtl
o Plane
v -4.689657 -4.574535 -0.031500
v -4.689657 -4.574535 0.031500
v 4.689657 -4.574535 -0.031500
v 4.689657 -4.574535 0.031500
v -4.689657 4.622764 -0.031500
v -4.689657 4.622764 0.031500
v 4.689657 4.622764 -0.031500
v 4.689657 4.622764 0.031500
v -4.689657 2.323439 -0.031500
v -4.689657 2.323439 0.031500
v -4.689657 0.024114 -0.031500
v -4.689657 0.024114 0.031500
v -4.689657 -2.275211 -0.031500
v -4.689657 -2.275211 0.031500
v -2.344828 -4.574535 -0.031500
v -2.344828 -4.574535 0.031500
v 0.000000 -4.574535 -0.031500
v 0.000000 -4.574535 0.031500
v 2.344828 -4.574535 -0.031500
v 2.344828 -4.574535 0.031500
v 4.689657 -2.275211 -0.031500
v 4.689657 -2.275211 0.031500
v 4.689657 0.024114 -0.031500
v 4.689657 0.024114 0.031500
v 4.689657 2.323439 -0.031500
v 4.689657 2.323439 0.031500
v 2.344828 4.622764 -0.031500
v 2.344828 4.622764 0.031500
v 0.000000 4.622764 -0.031500
v 0.000000 4.622764 0.031500
v -2.344828 4.622764 -0.031500
v -2.344828 4.622764 0.031500
v -2.344828 -2.275211 -0.031500
v -2.344828 -2.275211 0.031500
v -2.344828 0.024114 -0.031500
v -2.344828 0.024114 0.031500
v -2.344828 2.323439 -0.031500
v -2.344828 2.323439 0.031500
v 0.000000 -2.275211 -0.031500
v 0.000000 -2.275211 0.031500
v 0.000000 0.024114 -0.031500
v 0.000000 0.024114 0.031500
v 0.000000 2.323439 -0.031500
v 0.000000 2.323439 0.031500
v 2.344828 -2.275211 -0.031500
v 2.344828 -2.275211 0.031500
v 2.344828 0.024114 -0.031500
v 2.344828 0.024114 0.031500
v 2.344828 2.323439 -0.031500
v 2.344828 2.323439 0.031500
v -2.197104 2.178581 0.000000
v -2.197104 0.168971 0.000000
v -0.147724 0.168971 0.000000
v -0.147724 2.178581 0.000000
v 0.147724 2.178581 0.000000
v 0.147724 0.168971 0.000000
v 2.197104 0.168971 0.000000
v 2.197104 2.178581 0.000000
v -2.197104 -0.120743 -0.000000
v -2.197104 -2.130353 -0.000000
v -0.147724 -2.130353 -0.000000
v -0.147724 -0.120743 -0.000000
v 0.147724 -0.120743 -0.000000
v 0.147724 -2.130353 -0.000000
v 2.197104 -2.130353 -0.000000
v 2.197104 -0.120743 -0.000000
v -2.492553 -2.420068 -0.000000
v -4.541933 -2.420068 -0.000000
v -4.541933 -4.429678 -0.000000
v -2.492553 -4.429678 -0.000000
v 4.541933 -2.420068 -0.000000
v 2.492553 -2.420068 -0.000000
v 2.492553 -4.429678 -0.000000
v 4.541933 -4.429678 -0.000000
v 2.492553 2.468296 0.000000
v 4.541933 2.468296 0.000000
v 4.541933 4.477906 0.000000
v 2.492553 4.477906 0.000000
v -4.541933 2.468296 0.000000
v -2.492553 2.468296 0.000000
v -2.492553 4.477906 0.000000
v -4.541933 4.477906 0.000000
v -2.492553 0.168971 0.000000
v -2.492553 2.178581 0.000000
v -4.541933 2.178581 0.000000
v -4.541933 0.168971 0.000000
v -2.492553 -0.120743 -0.000000
v -4.541933 -0.120743 -0.000000
v -4.541933 -2.130353 -0.000000
v -2.492553 -2.130353 -0.000000
v -0.147724 -2.420068 -0.000000
v -2.197104 -2.420068 -0.000000
v -2.197104 -4.429678 -0.000000
v -0.147724 -4.429678 -0.000000
v 2.197104 -2.420068 -0.000000
v 0.147724 -2.420068 -0.000000
v 0.147724 -4.429678 -0.000000
v 2.197104 -4.429678 -0.000000
v 2.492553 -0.120743 -0.000000
v 2.492553 -2.130353 -0.000000
v 4.541933 -2.130353 -0.000000
v 4.541933 -0.120743 -0.000000
v 2.492553 2.178581 0.000000
v 2.492553 0.168971 0.000000
v 4.541933 0.168971 0.000000
v 4.541933 2.178581 0.000000
v 0.147724 2.468296 0.000000
v 2.197104 2.468296 0.000000
v 2.197104 4.477906 0.000000
v 0.147724 4.477906 0.000000
v -2.197104 2.468296 0.000000
v -0.147724 2.468296 0.000000
v -0.147724 4.477906 0.000000
v -2.197104 4.477906 0.000000
vn 0.2085 -0.0000 -0.9780
vn 0.2085 -0.0000 0.9780
vn -0.0000 0.2125 -0.9772
vn -0.0000 0.2125 0.9772
vn -0.2085 -0.0000 -0.9780
vn -0.2085 -0.0000 0.9780
vn -0.0000 -0.2125 -0.9772
vn -0.0000 -0.2125 0.9772
vt 0.250000 0.750000
vt 0.250000 0.500000
vt 0.500000 0.500000
vt 0.500000 0.750000
vt 0.750000 0.500000
vt 0.750000 0.750000
vt 0.250000 0.250000
vt 0.500000 0.250000
vt 0.750000 0.250000
vt 0.000000 0.250000
vt 0.000000 0.000000
vt 0.250000 0.000000
vt 1.000000 0.250000
vt 0.750000 0.000000
vt 1.000000 0.000000
vt 1.000000 0.750000
vt 1.000000 1.000000
vt 0.750000 1.000000
vt 0.000000 0.750000
vt 0.250000 1.000000
vt 0.000000 1.000000
vt 0.000000 0.500000
vt 0.500000 0.000000
vt 1.000000 0.500000
vt 0.500000 1.000000
s 0
f 51/1/1 52/2/1 35/2/1 37/1/1
f 52/2/2 51/1/2 38/1/2 36/2/2
f 52/2/3 53/3/3 41/3/3 35/2/3
f 53/3/4 52/2/4 36/2/4 42/3/4
f 53/3/5 54/4/5 43/4/5 41/3/5
f 54/4/6 53/3/6 42/3/6 44/4/6
f 54/4/7 51/1/7 37/1/7 43/4/7
f 51/1/8 54/4/8 44/4/8 38/1/8
f 55/4/1 56/3/1 41/3/1 43/4/1
f 56/3/2 55/4/2 44/4/2 42/3/2
f 56/3/3 57/5/3 47/5/3 41/3/3
f 57/5/4 56/3/4 42/3/4 48/5/4
f 57/5/5 58/6/5 49/6/5 47/5/5
f 58/6/6 57/5/6 48/5/6 50/6/6
f 58/6/7 55/4/7 43/4/7 49/6/7
f 55/4/8 58/6/8 50/6/8 44/4/8
f 59/2/1 60/7/1 33/7/1 35/2/1
f 60/7/2 59/2/2 36/2/2 34/7/2
f 60/7/3 61/8/3 39/8/3 33/7/3
f 61/8/4 60/7/4 34/7/4 40/8/4
f 61/8/5 62/3/5 41/3/5 39/8/5
f 62/3/6 61/8/6 40/8/6 42/3/6
f 62/3/7 59/2/7 35/2/7 41/3/7
f 59/2/8 62/3/8 42/3/8 36/2/8
f 63/3/1 64/8/1 39/8/1 41/3/1
f 64/8/2 63/3/2 42/3/2 40/8/2
f 64/8/3 65/9/3 45/9/3 39/8/3
f 65/9/4 64/8/4 40/8/4 46/9/4
f 65/9/5 66/5/5 47/5/5 45/9/5
f 66/5/6 65/9/6 46/9/6 48/5/6
f 66/5/7 63/3/7 41/3/7 47/5/7
f 63/3/8 66/5/8 48/5/8 42/3/8
f 67/7/7 68/10/7 13/10/7 33/7/7
f 68/10/8 67/7/8 34/7/8 14/10/8
f 68/10/1 69/11/1 1/11/1 13/10/1
f 69/11/2 68/10/2 14/10/2 2/11/2
f 69/11/3 70/12/3 15/12/3 1/11/3
f 70/12/4 69/11/4 2/11/4 16/12/4
f 70/12/5 67/7/5 33/7/5 15/12/5
f 67/7/6 70/12/6 16/12/6 34/7/6
f 71/13/7 72/9/7 45/9/7 21/13/7
f 72/9/8 71/13/8 22/13/8 46/9/8
f 72/9/1 73/14/1 19/14/1 45/9/1
f 73/14/2 72/9/2 46/9/2 20/14/2
f 73/14/3 74/15/3 3/15/3 19/14/3
f 74/15/4 73/14/4 20/14/4 4/15/4
f 74/15/5 71/13/5 21/13/5 3/15/5
f 71/13/6 74/15/6 4/15/6 22/13/6
f 75/6/3 76/16/3 25/16/3 49/6/3
f 76/16/4 75/6/4 50/6/4 26/16/4
f 76/16/5 77/17/5 7/17/5 25/16/5
f 77/17/6 76/16/6 26/16/6 8/17/6
f 77/17/7 78/18/7 27/18/7 7/17/7
f 78/18/8 77/17/8 8/17/8 28/18/8
f 78/18/1 75/6/1 49/6/1 27/18/1
f 75/6/2 78/18/2 28/18/2 50/6/2
f 79/19/3 80/1/3 37/1/3 9/19/3
f 80/1/4 79/19/4 10/19/4 38/1/4
f 80/1/5 81/20/5 31/20/5 37/1/5
f 81/20/6 80/1/6 38/1/6 32/20/6
f 81/20/7 82/21/7 5/21/7 31/20/7
f 82/21/8 81/20/8 32/20/8 6/21/8
f 82/21/1 79/19/1 9/19/1 5/21/1
f 79/19/2 82/21/2 6/21/2 10/19/2
f 83/2/5 84/1/5 37/1/5 35/2/5
f 84/1/6 83/2/6 36/2/6 38/1/6
f 84/1/7 85/19/7 9/19/7 37/1/7
f 85/19/8 84/1/8 38/1/8 10/19/8
f 85/19/1 86/22/1 11/22/1 9/19/1
f 86/22/2 85/19/2 10/19/2 12/22/2
f 86/22/3 83/2/3 35/2/3 11/22/3
f 83/2/4 86/22/4 12/22/4 36/2/4
f 87/2/7 88/22/7 11/22/7 35/2/7
f 88/22/8 87/2/8 36/2/8 12/22/8
f 88/22/1 89/10/1 13/10/1 11/22/1
f 89/10/2 88/22/2 12/22/2 14/10/2
f 89/10/3 90/7/3 33/7/3 13/10/3
f 90/7/4 89/10/4 14/10/4 34/7/4
f 90/7/5 87/2/5 35/2/5 33/7/5
f 87/2/6 90/7/6 34/7/6 36/2/6
f 91/8/7 92/7/7 33/7/7 39/8/7
f 92/7/8 91/8/8 40/8/8 34/7/8
f 92/7/1 93/12/1 15/12/1 33/7/1
f 93/12/2 92/7/2 34/7/2 16/12/2
f 93/12/3 94/23/3 17/23/3 15/12/3
f 94/23/4 93/12/4 16/12/4 18/23/4
f 94/23/5 91/8/5 39/8/5 17/23/5
f 91/8/6 94/23/6 18/23/6 40/8/6
f 95/9/7 96/8/7 39/8/7 45/9/7
f 96/8/8 95/9/8 46/9/8 40/8/8
f 96/8/1 97/23/1 17/23/1 39/8/1
f 97/23/2 96/8/2 40/8/2 18/23/2
f 97/23/3 98/14/3 19/14/3 17/23/3
f 98/14/4 97/23/4 18/23/4 20/14/4
f 98/14/5 95/9/5 45/9/5 19/14/5
f 95/9/6 98/14/6 20/14/6 46/9/6
f 99/5/1 100/9/1 45/9/1 47/5/1
f 100/9/2 99/5/2 48/5/2 46/9/2
f 100/9/3 101/13/3 21/13/3 45/9/3
f 101/13/4 100/9/4 46/9/4 22/13/4
f 101/13/5 102/24/5 23/24/5 21/13/5
f 102/24/6 101/13/6 22/13/6 24/24/6
f 102/24/7 99/5/7 47/5/7 23/24/7
f 99/5/8 102/24/8 24/24/8 48/5/8
f 103/6/1 104/5/1 47/5/1 49/6/1
f 104/5/2 103/6/2 50/6/2 48/5/2
f 104/5/3 105/24/3 23/24/3 47/5/3
f 105/24/4 104/5/4 48/5/4 24/24/4
f 105/24/5 106/16/5 25/16/5 23/24/5
f 106/16/6 105/24/6 24/24/6 26/16/6
f 106/16/7 103/6/7 49/6/7 25/16/7
f 103/6/8 106/16/8 26/16/8 50/6/8
f 107/4/3 108/6/3 49/6/3 43/4/3
f 108/6/4 107/4/4 44/4/4 50/6/4
f 108/6/5 109/18/5 27/18/5 49/6/5
f 109/18/6 108/6/6 50/6/6 28/18/6
f 109/18/7 110/25/7 29/25/7 27/18/7
f 110/25/8 109/18/8 28/18/8 30/25/8
f 110/25/1 107/4/1 43/4/1 29/25/1
f 107/4/2 110/25/2 30/25/2 44/4/2
f 111/1/3 112/4/3 43/4/3 37/1/3
f 112/4/4 111/1/4 38/1/4 44/4/4
f 112/4/5 113/25/5 29/25/5 43/4/5
f 113/25/6 112/4/6 44/4/6 30/25/6
f 113/25/7 114/20/7 31/20/7 29/25/7
f 114/20/8 113/25/8 30/25/8 32/20/8
f 114/20/1 111/1/1 37/1/1 31/20/1
f 111/1/2 114/20/2 32/20/2 38/1/2
