# Blender 3.6.0
# www.blender.org
mtllib Cross.mtl
o Cross
v -0.000000 -0.229810 0.404164
v -0.791960 -0.724785 0.731595
v 0.724784 -0.791960 0.731595
v 0.813173 0.661144 0.731595
v -0.229810 -0.000000 0.404164
v -0.791960 -0.724785 0.404165
v -0.813173 0.661144 0.404165
v 0.661145 -0.813174 0.731595
v 0.813173 0.661144 0.404165
v 0.229810 -0.000000 0.404164
v -0.000000 -0.229810 0.731595
v 0.791960 0.724783 0.404165
v 0.791960 -0.724785 0.731595
v -0.000000 0.229809 0.731595
v -0.813173 -0.661146 0.731595
v 0.557907 0.787716 0.731595
v -0.813173 0.661144 0.731595
v -0.787717 -0.557908 0.731595
v 0.557907 -0.787717 0.731595
v 0.787717 -0.557908 0.731595
v 0.813173 -0.661146 0.731595
v -0.229810 -0.000001 0.731595
v -0.557907 -0.787717 0.404164
v 0.791960 -0.724785 0.404165
v -0.813173 -0.661146 0.404164
v -0.787717 -0.557908 0.404164
v -0.000000 0.229809 0.404164
v 0.724784 0.791959 0.731595
v -0.557907 0.787716 0.404164
v 0.229810 -0.000001 0.731595
v -0.787717 0.557907 0.404164
v -0.724784 -0.791960 0.404165
v -0.724784 0.791959 0.731595
v -0.791960 0.724784 0.404165
v 0.787717 -0.557908 0.404164
v -0.557907 0.787716 0.731595
v 0.557907 -0.787717 0.404164
v -0.724784 -0.791960 0.731595
v -0.791960 0.724784 0.731595
v 0.724784 0.791959 0.404165
v -0.557907 -0.787717 0.731595
v 0.791960 0.724783 0.731595
v 0.787717 0.557907 0.404164
v -0.661145 0.813172 0.404165
v -0.787717 0.557907 0.731595
v 0.661145 -0.813174 0.404165
v -0.661145 -0.813174 0.404164
v 0.787717 0.557907 0.731595
v 0.661145 0.813172 0.404165
v 0.557907 0.787716 0.404164
v -0.661145 -0.813174 0.731595
v 0.661145 0.813172 0.731595
v 0.724784 -0.791960 0.404165
v -0.661145 0.813172 0.731595
v -0.724784 0.791959 0.404165
v 0.813173 -0.661146 0.404165
vn -0.0000 -0.0000 1.0000
vn -0.7071 -0.7071 -0.0000
vn 0.7071 -0.7071 -0.0000
vn 0.2394 -0.9709 -0.0000
vn -0.7071 0.7071 -0.0000
vn -0.9709 0.2394 -0.0000
vn 0.7071 0.7071 -0.0000
vn 0.9709 0.2394 -0.0000
vn -0.2394 -0.9709 -0.0000
vn -0.0000 -0.0000 -1.0000
vn -0.3162 -0.9487 -0.0000
vn -0.9487 -0.3162 -0.0000
vn -0.9709 -0.2394 -0.0000
vn 0.2394 0.9709 -0.0000
vn 0.9709 -0.2394 -0.0000
vn -0.2394 0.9709 -0.0000
vn 0.9487 -0.3162 -0.0000
vn 0.3162 -0.9487 -0.0000
vn -0.9487 0.3162 -0.0000
vn -0.3162 0.9487 -0.0000
vn 0.3162 0.9487 -0.0000
vn 0.9487 0.3162 -0.0000
vt 0.915026 0.343399
vt 0.875000 0.043399
vt 0.891487 0.043399
vt 0.931513 0.343399
vt 0.858513 0.043399
vt 0.818487 0.343399
vt 0.834974 0.343399
vt 0.875000 0.740801
vt 0.834974 0.740801
vt 0.915026 0.740801
vt 0.922432 0.343399
vt 0.933339 0.343399
vt 0.922432 0.740801
vt 0.931513 0.740801
vt 0.891487 0.740801
vt 0.933339 0.740801
vt 0.818487 0.740801
vt 0.858513 0.740801
vt 0.816660 0.740801
vt 0.816660 0.343399
vt 0.827567 0.343399
vt 0.827567 0.740801
vt 0.926998 0.343399
vt 0.931817 0.343399
vt 0.926998 0.740800
vt 0.931817 0.740800
vt 0.823002 0.740800
vt 0.818182 0.740800
vt 0.818182 0.343399
vt 0.823002 0.343399
s 0
usemtl Default.001
f 41/1/1 11/2/1 22/3/1 18/4/1
f 11/2/1 30/5/1 14/2/1 22/3/1
f 20/6/1 30/5/1 11/2/1 19/7/1
f 19/7/2 11/2/2 1/8/2 37/9/2
f 23/10/3 1/8/3 11/2/3 41/1/3
f 51/11/1 41/1/1 18/4/1 15/12/1
f 47/13/4 23/10/4 41/1/4 51/11/4
f 45/4/1 22/3/1 14/2/1 36/1/1
f 31/14/2 5/15/2 22/3/2 45/4/2
f 18/4/5 22/3/5 5/15/5 26/14/5
f 15/12/6 18/4/6 26/14/6 25/16/6
f 35/17/7 10/18/7 30/5/7 20/6/7
f 48/6/3 30/5/3 10/18/3 43/17/3
f 16/7/1 14/2/1 30/5/1 48/6/1
f 50/9/5 27/8/5 14/2/5 16/7/5
f 36/1/7 14/2/7 27/8/7 29/10/7
f 56/19/8 35/17/8 20/6/8 21/20/8
f 21/20/1 20/6/1 19/7/1 8/21/1
f 8/21/9 19/7/9 37/9/9 46/22/9
f 46/22/10 37/9/10 35/17/10 56/19/10
f 37/9/10 1/8/10 10/18/10 35/17/10
f 26/14/10 5/15/10 1/8/10 23/10/10
f 10/18/10 1/8/10 5/15/10 27/8/10
f 25/16/10 26/14/10 23/10/10 47/13/10
f 38/23/1 51/11/1 15/12/1 2/24/1
f 32/25/11 47/13/11 51/11/11 38/23/11
f 2/24/12 15/12/12 25/16/12 6/26/12
f 6/26/10 25/16/10 47/13/10 32/25/10
f 17/12/1 45/4/1 36/1/1 54/11/1
f 7/16/13 31/14/13 45/4/13 17/12/13
f 54/11/14 36/1/14 29/10/14 44/13/14
f 44/13/10 29/10/10 31/14/10 7/16/10
f 29/10/10 27/8/10 5/15/10 31/14/10
f 43/17/10 10/18/10 27/8/10 50/9/10
f 52/21/1 16/7/1 48/6/1 4/20/1
f 4/20/15 48/6/15 43/17/15 9/19/15
f 9/19/10 43/17/10 50/9/10 49/22/10
f 49/22/16 50/9/16 16/7/16 52/21/16
f 53/27/10 46/22/10 56/19/10 24/28/10
f 24/28/17 56/19/17 21/20/17 13/29/17
f 13/29/1 21/20/1 8/21/1 3/30/1
f 3/30/18 8/21/18 46/22/18 53/27/18
f 2/24/2 6/26/2 32/25/2 38/23/2
f 39/24/1 17/12/1 54/11/1 33/23/1
f 34/26/19 7/16/19 17/12/19 39/24/19
f 33/23/20 54/11/20 44/13/20 55/25/20
f 55/25/10 44/13/10 7/16/10 34/26/10
f 28/30/1 52/21/1 4/20/1 42/29/1
f 40/27/21 49/22/21 52/21/21 28/30/21
f 42/29/22 4/20/22 9/19/22 12/28/22
f 12/28/10 9/19/10 49/22/10 40/27/10
f 3/30/3 53/27/3 24/28/3 13/29/3
f 33/23/5 55/25/5 34/26/5 39/24/5
f 42/29/7 12/28/7 40/27/7 28/30/7
