# Blender 3.6.0
# www.blender.org
mtllib Select.mtl
o Select
v 0.728177 1.120735 0.851370
v 0.693117 1.074899 0.851370
v -0.728177 0.840983 0.648176
v 1.169816 0.767729 0.631160
v 0.654845 1.027802 0.851370
v 0.654845 0.933913 0.851370
v 0.693117 0.886817 0.851370
v 0.767729 1.169816 0.631160
v 0.693117 1.074899 0.648176
v -0.654846 0.933913 0.648176
v -0.654846 1.027802 0.851370
v -0.693118 1.074899 0.851370
v -0.693118 0.886817 0.648176
v 0.767729 0.767729 0.631160
v 0.767729 1.169816 0.899100
v 0.654845 -0.933915 0.851370
v -0.654845 -0.933915 0.851370
v -0.654846 0.933913 0.851370
v -0.728177 1.120735 0.648176
v -0.693118 0.886817 0.851370
v 0.767729 0.767729 0.899100
v 1.169816 0.767729 0.899100
v 0.693117 0.886817 0.648176
v 0.654845 0.933913 0.648176
v -0.693118 1.074899 0.648176
v 0.728177 1.120735 0.648176
v 1.074900 -0.693118 0.648176
v 1.120736 -0.728177 0.851370
v 1.027804 0.654845 0.648176
v -0.886818 -0.693118 0.851370
v 1.027803 -0.654845 0.851370
v 1.027803 -0.654845 0.648176
v -0.933914 0.654845 0.648176
v -1.027803 -0.654845 0.851370
v 1.027804 0.654845 0.851370
v -1.074900 -0.693118 0.851370
v 0.767729 -0.767730 0.899100
v -0.933914 -0.654845 0.648176
v 0.933914 -0.654845 0.648176
v 1.074900 -0.693118 0.851370
v -1.169816 0.767728 0.899100
v -1.027804 0.654845 0.851370
v 1.120736 0.728177 0.851370
v -0.933914 0.654845 0.851370
v 0.886818 0.693117 0.851370
v -1.074900 0.693117 0.648176
v -0.767729 0.767728 0.899100
v 1.074900 0.693117 0.648176
v 0.767729 -1.169816 0.631160
v -1.074900 -0.693118 0.648176
v -1.074900 0.693117 0.851370
v -1.169816 0.767728 0.631160
v -0.886818 0.693117 0.648176
v 1.074900 0.693117 0.851370
v -0.767729 0.767728 0.631160
v -0.886818 -0.693118 0.648176
v 0.886818 -0.693118 0.648176
v -0.886818 0.693117 0.851370
v 0.933914 -0.654845 0.851370
v -0.840983 -0.728177 0.648176
v 0.933914 0.654845 0.851370
v -1.120736 0.728177 0.851370
v 0.886818 -0.693118 0.851370
v 0.840983 -0.728177 0.648176
v -0.933914 -0.654845 0.851370
v -0.767729 1.169815 0.899100
v 0.840983 0.728177 0.851370
v -1.120736 0.728177 0.648176
v -0.840983 -0.728177 0.851370
v 0.840983 -0.728177 0.851370
v -1.120736 -0.728177 0.648176
v -0.767729 1.169815 0.631160
v 0.728177 -1.120736 0.648176
v 0.840983 0.728177 0.648176
v -0.728177 -1.120736 0.648176
v -0.654845 -1.027804 0.648176
v 0.654845 -1.027804 0.648176
v -0.767729 -0.767730 0.631160
v -0.654845 -0.933915 0.648176
v -0.767729 -1.169816 0.631160
v 0.654845 -0.933915 0.648176
v -0.840983 0.728177 0.648176
v 0.654845 -1.027804 0.851370
v -1.027803 -0.654845 0.648176
v -0.693118 -1.074901 0.648176
v -0.654845 -1.027804 0.851370
v 0.654845 1.027802 0.648176
v 0.693118 -1.074901 0.648176
v -0.728177 -0.840983 0.851370
v -0.693118 -0.886819 0.648176
v 0.693118 -0.886819 0.648176
v 0.693118 -1.074901 0.851370
v -0.728177 -1.120736 0.851370
v -0.693118 -1.074901 0.851370
v 0.728177 -1.120736 0.851370
v 0.693118 -0.886819 0.851370
v -0.693118 -0.886819 0.851370
v -0.728177 -0.840983 0.648176
v -0.767729 -0.767730 0.899100
v -1.169816 -0.767730 0.631160
v -1.169816 -0.767730 0.899100
v 0.933914 0.654845 0.648176
v -0.767729 -1.169816 0.899100
v -1.027804 0.654845 0.648176
v 0.886818 0.693117 0.648176
v -1.120736 -0.728177 0.851370
v 0.767729 -0.767730 0.631160
v -0.840983 0.728177 0.851370
v 0.728177 -0.840983 0.851370
v 0.767729 -1.169816 0.899100
v 0.728177 0.840983 0.648176
v 0.728177 0.840983 0.851370
v -0.728177 1.120735 0.851370
v -0.728177 0.840983 0.851370
v 0.728177 -0.840983 0.648176
v -0.654846 1.027802 0.648176
v 1.120736 0.728177 0.648176
v 1.120736 -0.728177 0.648176
v 1.169816 -0.767730 0.631160
v 1.169816 -0.767730 0.899100
vn -0.0000 -0.0000 1.0000
vn 1.0000 -0.0000 -0.0000
vn -0.0000 1.0000 -0.0000
vn -1.0000 -0.0000 -0.0000
vn -0.0000 -1.0000 -0.0000
vn -0.0000 -0.0000 -1.0000
vn 0.7071 0.7071 -0.0000
vn 0.7071 -0.7071 -0.0000
vn -0.7071 0.7071 -0.0000
vn -0.7071 -0.7071 -0.0000
vt 0.383839 0.342936
vt 0.416161 0.342936
vt 0.416161 0.869280
vt 0.383839 0.869280
vt 0.418947 0.113892
vt 0.428870 0.219035
vt 0.418947 0.219035
vt 0.428870 0.894752
vt 0.418947 0.894752
vt 0.418947 0.179027
vt 0.382894 0.342936
vt 0.382029 0.342936
vt 0.417971 0.342936
vt 0.417106 0.342936
vt 0.417971 0.869280
vt 0.417106 0.869280
vt 0.382894 0.869280
vt 0.382029 0.869280
vt 0.420755 0.342936
vt 0.420755 0.869280
vt 0.427659 0.342936
vt 0.427659 0.869280
vt 0.427659 0.342936
vt 0.421886 0.342936
vt 0.426528 0.342936
vt 0.421886 0.342936
vt 0.421886 0.869280
vt 0.426528 0.869280
vt 0.423048 0.342936
vt 0.425366 0.342936
vt 0.423048 0.869280
vt 0.425366 0.869280
vt 0.376951 0.342936
vt 0.374634 0.342936
vt 0.376951 0.869280
vt 0.374634 0.869280
vt 0.378114 0.342936
vt 0.379245 0.342936
vt 0.373472 0.342936
vt 0.372341 0.342936
vt 0.372341 0.869280
vt 0.379245 0.869280
vt 0.379245 0.869280
vt 0.378114 0.869280
vt 0.373472 0.869280
vt 0.381053 0.113892
vt 0.381053 0.219035
vt 0.371129 0.219035
vt 0.371129 0.894752
vt 0.381052 0.894752
vt 0.381053 0.179027
s 0
usemtl Select
f 18/1/1 6/2/1 5/2/1 11/1/1
f 6/2/2 24/3/2 87/3/2 5/2/2
f 5/2/3 87/3/3 116/4/3 11/1/3
f 11/1/4 116/4/4 10/4/4 18/1/4
f 18/1/5 10/4/5 24/3/5 6/2/5
f 24/3/6 10/4/6 116/4/6 87/3/6
f 21/5/1 22/6/1 15/7/1
f 22/6/7 4/8/7 8/9/7 15/7/7
f 21/10/5 14/9/5 4/8/5 22/6/5
f 15/7/4 8/9/4 14/9/4 21/5/4
f 4/8/6 14/9/6 8/9/6
f 20/11/1 114/12/1 112/13/1 7/14/1
f 112/13/2 111/15/2 26/15/2 1/13/2
f 7/14/3 23/16/3 13/17/3 20/11/3
f 113/12/4 19/18/4 3/18/4 114/12/4
f 20/11/2 13/17/2 25/17/2 12/11/2
f 2/14/4 9/16/4 23/16/4 7/14/4
f 7/14/1 112/13/1 1/13/1 2/14/1
f 114/12/5 3/18/5 111/15/5 112/13/5
f 12/11/1 113/12/1 114/12/1 20/11/1
f 2/14/1 1/13/1 113/12/1 12/11/1
f 1/13/3 26/15/3 19/18/3 113/12/3
f 12/11/5 25/17/5 9/16/5 2/14/5
f 67/19/4 74/20/4 64/20/4 70/19/4
f 43/21/3 117/22/3 74/20/3 67/19/3
f 70/19/5 64/20/5 118/22/5 28/23/5
f 63/24/1 70/19/1 28/23/1 40/25/1
f 54/25/1 43/21/1 67/19/1 45/26/1
f 45/26/1 67/19/1 70/19/1 63/24/1
f 28/23/2 118/22/2 117/22/2 43/21/2
f 40/25/1 28/23/1 43/21/1 54/25/1
f 63/24/2 57/27/2 105/27/2 45/26/2
f 40/25/3 27/28/3 57/27/3 63/24/3
f 54/25/4 48/28/4 27/28/4 40/25/4
f 45/26/5 105/27/5 48/28/5 54/25/5
f 61/29/1 59/29/1 31/30/1 35/30/1
f 61/29/4 102/31/4 39/31/4 59/29/4
f 35/30/3 29/32/3 102/31/3 61/29/3
f 59/29/5 39/31/5 32/32/5 31/30/5
f 31/30/2 32/32/2 29/32/2 35/30/2
f 39/31/6 102/31/6 29/32/6 32/32/6
f 37/5/1 110/7/1 120/6/1
f 110/7/8 49/9/8 119/8/8 120/6/8
f 120/6/3 119/8/3 107/9/3 37/5/3
f 37/10/4 107/9/4 49/9/4 110/7/4
f 49/9/6 107/9/6 119/8/6
f 109/13/3 115/15/3 98/18/3 89/12/3
f 89/12/4 98/18/4 75/18/4 93/12/4
f 95/13/2 73/15/2 115/15/2 109/13/2
f 96/14/1 109/13/1 89/12/1 97/11/1
f 92/14/1 95/13/1 109/13/1 96/14/1
f 97/11/1 89/12/1 93/12/1 94/11/1
f 93/12/5 75/18/5 73/15/5 95/13/5
f 94/11/1 93/12/1 95/13/1 92/14/1
f 97/11/5 90/17/5 91/16/5 96/14/5
f 96/14/4 91/16/4 88/16/4 92/14/4
f 94/11/2 85/17/2 90/17/2 97/11/2
f 92/14/3 88/16/3 85/17/3 94/11/3
f 16/2/1 17/1/1 86/1/1 83/2/1
f 16/2/3 81/3/3 79/4/3 17/1/3
f 83/2/2 77/3/2 81/3/2 16/2/2
f 17/1/4 79/4/4 76/4/4 86/1/4
f 86/1/5 76/4/5 77/3/5 83/2/5
f 79/4/6 81/3/6 77/3/6 76/4/6
f 65/33/1 44/33/1 42/34/1 34/34/1
f 65/33/2 38/35/2 33/35/2 44/33/2
f 34/34/5 84/36/5 38/35/5 65/33/5
f 44/33/3 33/35/3 104/36/3 42/34/3
f 42/34/4 104/36/4 84/36/4 34/34/4
f 33/35/6 38/35/6 84/36/6 104/36/6
f 30/37/1 69/38/1 108/38/1 58/37/1
f 36/39/1 106/40/1 69/38/1 30/37/1
f 106/40/5 71/41/5 60/42/5 69/38/5
f 108/38/3 82/43/3 68/41/3 62/40/3
f 58/37/1 108/38/1 62/40/1 51/39/1
f 58/37/4 53/44/4 56/44/4 30/37/4
f 30/37/3 56/44/3 50/45/3 36/39/3
f 69/38/2 60/42/2 82/43/2 108/38/2
f 51/39/5 46/45/5 53/44/5 58/37/5
f 62/40/4 68/41/4 71/41/4 106/40/4
f 51/39/1 62/40/1 106/40/1 36/39/1
f 36/39/2 50/45/2 46/45/2 51/39/2
f 47/46/1 66/47/1 41/48/1
f 41/48/5 52/49/5 55/50/5 47/46/5
f 66/47/9 72/50/9 52/49/9 41/48/9
f 47/51/2 55/50/2 72/50/2 66/47/2
f 72/50/6 55/50/6 52/49/6
f 99/46/1 101/48/1 103/47/1
f 99/51/3 78/50/3 100/49/3 101/48/3
f 103/47/2 80/50/2 78/50/2 99/46/2
f 101/48/10 100/49/10 80/50/10 103/47/10
f 100/49/6 78/50/6 80/50/6
